####
#
#  OBJ File Generated by LightWave3D
#  LightWave3D OBJ Export v2.3
#
####
o ball.obj
mtllib ball.mtl
g default
v -2.5 0 3.50962e-007
v -2.40485 0.581136 -0.359161
v -2.40485 -0.581136 0.359162
v -2.37764 -0.690983 -0.345491
v -2.37764 0 -0.772542
v -2.37764 0 0.772543
v -2.37764 0.690983 0.345492
v -2.15667 0.581136 -1.12296
v -2.15667 -1.2643 0.0175789
v -2.15667 -0.581136 1.12297
v -2.15667 1.2643 -0.0175783
v -2.12663 -0.690983 -1.11803
v -2.12663 1.11803 -0.690983
v -2.12663 -1.11803 0.690983
v -2.12663 0.690983 1.11803
v -2.02254 0 -1.46946
v -2.02254 -1.31433 -0.657164
v -2.02254 0 1.46946
v -2.02254 1.31433 0.657164
v -1.75512 1.2643 -1.25344
v -1.75512 1.68652 -0.570271
v -1.75512 -1.68652 0.570272
v -1.75512 -1.2643 1.25344
v -1.73445 -0.581136 -1.7041
v -1.73445 -1.2643 -1.28188
v -1.73445 0.581136 1.7041
v -1.73445 1.2643 1.28188
v -1.72048 0.690983 -1.67705
v -1.72048 -1.80902 -0.131966
v -1.72048 1.80902 0.131966
v -1.72048 -0.690983 1.67705
v -1.46946 0 -2.02254
v -1.46946 -1.80902 -0.904508
v -1.46946 0 2.02254
v -1.46946 1.80902 0.904509
v -1.31433 -1.11803 -1.80902
v -1.31433 1.80902 -1.11803
v -1.31433 -1.80902 1.11803
v -1.31433 1.11803 1.80902
v -1.25 1.31433 -1.72048
v -1.25 2.12663 -0.406149
v -1.25 -2.12663 0.40615
v -1.25 -1.31433 1.72048
v -1.08472 -0.581136 -2.17616
v -1.08472 -1.68652 -1.49299
v -1.08472 0.581136 2.17616
v -1.08472 1.68652 1.49299
v -1.06331 0.690983 -2.15451
v -1.06331 -2.23607 -0.345491
v -1.06331 2.23607 0.345492
v -1.06331 -0.690983 2.15451
v -0.772543 0 -2.37764
v -0.772543 -2.12663 -1.06331
v -0.772542 2.12663 1.06331
v -0.772542 0 2.37764
v -0.683167 -1.2643 -2.04568
v -0.683166 1.2643 2.04568
v -0.657164 1.80902 -1.59549
v -0.657164 2.23607 -0.904508
v -0.657164 -2.23607 0.904509
v -0.657164 -1.80902 1.59549
v -0.64973 1.2643 -2.05655
v -0.64973 -2.40485 0.21111
v -0.64973 2.40485 -0.21111
v -0.649729 -1.2643 2.05655
v -0.40615 -0.690983 -2.36803
v -0.40615 -1.80902 -1.67705
v -0.406149 1.80902 1.67705
v -0.406149 0.690983 2.36803
v -0.401555 0.581136 -2.39813
v -0.401555 -2.40485 -0.552693
v -0.401555 2.40485 0.552693
v -0.401555 -0.581136 2.39813
v -1.99031e-007 -1.31433 -2.12663
v -1.16987e-007 0 -2.5
v -1.04637e-007 -2.23607 -1.11803
v 0 -2.5 -0
v 0 1.11803 -2.23607
v 0 1.68652 -1.84544
v 0 2.12663 -1.31433
v 0 2.40485 -0.683166
v 0 2.5 -0
v 6.39374e-008 -2.40485 0.683166
v 1.04637e-007 2.23607 1.11803
v 1.23008e-007 -2.12663 1.31433
v 1.72714e-007 -1.68652 1.84544
v 1.99031e-007 1.31433 2.12663
v 2.09273e-007 -1.11803 2.23607
v 2.33974e-007 0 2.5
v 0.401555 -2.40485 -0.552693
v 0.401555 0.581136 -2.39813
v 0.401555 2.40485 0.552693
v 0.401555 -0.581136 2.39813
v 0.406149 -1.80902 -1.67705
v 0.40615 -0.690983 -2.36803
v 0.40615 1.80902 1.67705
v 0.40615 0.690983 2.36803
v 0.64973 -2.40485 0.21111
v 0.64973 1.2643 -2.05655
v 0.64973 2.40485 -0.21111
v 0.64973 -1.2643 2.05655
v 0.657164 1.80902 -1.59549
v 0.657164 2.23607 -0.904508
v 0.657164 -2.23607 0.904508
v 0.657164 -1.80902 1.59549
v 0.683166 -1.2643 -2.04568
v 0.683166 1.2643 2.04568
v 0.772542 -2.12663 -1.06331
v 0.772542 0 -2.37764
v 0.772542 2.12663 1.06331
v 0.772543 0 2.37764
v 1.06331 -2.23607 -0.345491
v 1.06331 0.690983 -2.15451
v 1.06331 2.23607 0.345491
v 1.06331 -0.690983 2.15451
v 1.08472 -1.68652 -1.49299
v 1.08472 -0.581136 -2.17616
v 1.08472 1.68652 1.49299
v 1.08472 0.581136 2.17616
v 1.25 -2.12663 0.40615
v 1.25 1.31433 -1.72048
v 1.25 2.12663 -0.40615
v 1.25 -1.31433 1.72048
v 1.31433 -1.80902 1.11803
v 1.31433 -1.11803 -1.80902
v 1.31433 1.80902 -1.11803
v 1.31433 1.11803 1.80902
v 1.46946 -1.80902 -0.904508
v 1.46946 0 -2.02254
v 1.46946 1.80902 0.904508
v 1.46946 0 2.02254
v 1.72048 -1.80902 -0.131966
v 1.72048 0.690983 -1.67705
v 1.72048 1.80902 0.131966
v 1.72048 -0.690983 1.67705
v 1.73445 -1.2643 -1.28188
v 1.73445 -0.581136 -1.7041
v 1.73445 1.2643 1.28188
v 1.73445 0.581136 1.7041
v 1.75512 -1.68652 0.570272
v 1.75512 1.2643 -1.25344
v 1.75512 1.68652 -0.570272
v 1.75512 -1.2643 1.25344
v 2.02254 -1.31433 -0.657164
v 2.02254 0 -1.46946
v 2.02254 1.31433 0.657164
v 2.02254 0 1.46946
v 2.12663 -1.11803 0.690983
v 2.12663 -0.690983 -1.11803
v 2.12663 1.11803 -0.690983
v 2.12663 0.690983 1.11803
v 2.15667 -1.2643 0.0175785
v 2.15667 0.581136 -1.12296
v 2.15667 1.2643 -0.0175787
v 2.15667 -0.581136 1.12296
v 2.37764 -0.690983 -0.345492
v 2.37764 0 -0.772543
v 2.37764 0 0.772542
v 2.37764 0.690983 0.345491
v 2.40485 0.581136 -0.359162
v 2.40485 -0.581136 0.359162
v 2.5 0 -1.16987e-007
vn -1 -5.04386e-009 2.16886e-007
vn -0.95823 -0.243286 0.150359
vn -0.95823 0.243286 -0.150359
vn -0.950975 -0.0131397 -0.30899
vn -0.950975 0.270493 0.149937
vn -0.950974 -0.270493 -0.149937
vn -0.950974 0.0131398 0.30899
vn -0.863603 0.243286 -0.44159
vn -0.863603 -0.503771 0.0201171
vn -0.863603 -0.243287 0.44159
vn -0.863603 0.503771 -0.0201168
vn -0.857485 -0.270493 -0.437667
vn -0.857485 0.270493 0.437667
vn -0.850651 0.447214 -0.276393
vn -0.850651 -0.447214 0.276393
vn -0.809017 5.67434e-008 -0.587785
vn -0.809017 -0.525731 -0.262865
vn -0.809017 4.53948e-008 0.587785
vn -0.809017 0.525731 0.262866
vn -0.710494 0.503771 -0.491338
vn -0.710494 -0.664759 0.230854
vn -0.710494 0.66476 -0.230853
vn -0.710494 -0.503771 0.491338
vn -0.686845 -0.243286 -0.684876
vn -0.686845 -0.503771 -0.523888
vn -0.686845 0.243286 0.684876
vn -0.686845 0.503771 0.523888
vn -0.681224 -0.729421 -0.0622899
vn -0.681224 0.270493 -0.68027
vn -0.681224 -0.270493 0.680271
vn -0.681224 0.729421 0.06229
vn -0.587735 -0.729421 -0.350019
vn -0.587735 0.0131398 -0.808947
vn -0.587734 0.729421 0.35002
vn -0.587734 -0.0131399 0.808947
vn -0.525731 -0.447214 -0.723607
vn -0.525731 0.447214 0.723607
vn -0.514508 0.729421 -0.450807
vn -0.514508 -0.729421 0.450807
vn -0.5 0.525731 -0.688191
vn -0.5 -0.850651 0.16246
vn -0.5 0.850651 -0.16246
vn -0.5 -0.525731 0.688191
vn -0.439109 -0.66476 -0.604382
vn -0.439109 -0.243286 -0.864867
vn -0.439109 0.66476 0.604382
vn -0.439109 0.243286 0.864867
vn -0.436466 -0.888474 -0.141816
vn -0.436466 0.270493 -0.858097
vn -0.436466 0.888474 0.141816
vn -0.436466 -0.270493 0.858097
vn -0.309017 -0.850651 -0.425325
vn -0.309017 -7.56579e-009 -0.951056
vn -0.309017 0.850651 0.425325
vn -0.309017 -4.91776e-008 0.951057
vn -0.286 -0.503771 -0.815119
vn -0.286 0.503771 0.815119
vn -0.269751 0.729421 -0.628633
vn -0.269751 0.888474 -0.37128
vn -0.269751 -0.888474 0.37128
vn -0.269751 -0.729421 0.628633
vn -0.247736 0.503771 -0.827552
vn -0.247736 -0.965478 0.0804942
vn -0.247736 -0.503771 0.827552
vn -0.247736 0.965478 -0.0804942
vn -0.153109 0.243286 -0.957794
vn -0.153109 -0.965478 -0.210737
vn -0.153109 0.965478 0.210737
vn -0.153109 -0.243286 0.957794
vn -0.151269 -0.270493 -0.950764
vn -0.151268 -0.729421 -0.667131
vn -0.151268 0.729421 0.667131
vn -0.151268 0.270493 0.950764
vn -1.16009e-007 -0.525731 -0.850651
vn -1.05983e-007 -0.0131398 -0.999914
vn -4.60523e-008 -0.888474 -0.458928
vn -2.77222e-008 0.965478 -0.260485
vn -2.26974e-008 0.850651 -0.525731
vn 3.02408e-009 1 3.7801e-009
vn 5.04386e-009 0.525731 0.850651
vn 9.07223e-009 -1 3.7801e-009
vn 3.52828e-008 -0.965478 0.260485
vn 3.52828e-008 0.66476 -0.747057
vn 4.23371e-008 0.447214 -0.894427
vn 5.55151e-008 0.888474 0.458928
vn 6.30483e-008 -0.850651 0.525731
vn 9.82877e-008 -0.66476 0.747057
vn 1.08507e-007 0.0131398 0.999914
vn 1.20963e-007 -0.447214 0.894427
vn 0.151268 -0.729421 -0.667131
vn 0.151268 -0.270493 -0.950764
vn 0.151268 0.729421 0.667131
vn 0.151269 0.270493 0.950764
vn 0.153109 0.243286 -0.957794
vn 0.153109 -0.965478 -0.210737
vn 0.153109 0.965478 0.210737
vn 0.153109 -0.243286 0.957794
vn 0.247736 -0.965478 0.0804942
vn 0.247736 0.965478 -0.0804942
vn 0.247736 0.503771 -0.827552
vn 0.247736 -0.503771 0.827552
vn 0.269751 0.888474 -0.37128
vn 0.269751 0.729421 -0.628633
vn 0.269751 -0.888474 0.37128
vn 0.269751 -0.729421 0.628633
vn 0.286 -0.503771 -0.815119
vn 0.286 0.503771 0.815119
vn 0.309017 -4.91777e-008 -0.951057
vn 0.309017 -0.850651 -0.425325
vn 0.309017 3.5307e-008 0.951056
vn 0.309017 0.850651 0.425325
vn 0.436466 0.270493 -0.858097
vn 0.436466 0.888474 0.141816
vn 0.436466 -0.888474 -0.141816
vn 0.436466 -0.270493 0.858097
vn 0.439109 -0.243286 -0.864867
vn 0.439109 -0.66476 -0.604382
vn 0.439109 0.243286 0.864867
vn 0.439109 0.66476 0.604382
vn 0.5 0.525731 -0.688191
vn 0.5 -0.850651 0.16246
vn 0.5 -0.525731 0.688191
vn 0.5 0.850651 -0.16246
vn 0.514508 -0.729421 0.450807
vn 0.514508 0.729421 -0.450807
vn 0.525731 -0.447214 -0.723607
vn 0.525731 0.447214 0.723607
vn 0.587734 -0.729421 -0.35002
vn 0.587735 -0.0131398 0.808947
vn 0.587735 0.0131398 -0.808947
vn 0.587735 0.729421 0.35002
vn 0.681224 -0.729421 -0.0622899
vn 0.681224 -0.270493 0.680271
vn 0.681224 0.270493 -0.680271
vn 0.681224 0.729421 0.0622899
vn 0.686845 0.503771 0.523888
vn 0.686845 -0.503771 -0.523888
vn 0.686845 -0.243286 -0.684876
vn 0.686845 0.243287 0.684876
vn 0.710494 -0.503771 0.491338
vn 0.710494 0.503771 -0.491338
vn 0.710494 -0.66476 0.230853
vn 0.710494 0.66476 -0.230853
vn 0.809017 2.90022e-008 -0.587785
vn 0.809017 0.525731 0.262865
vn 0.809017 -0.525731 -0.262866
vn 0.809017 -5.92654e-008 0.587785
vn 0.850651 -0.447214 0.276393
vn 0.850651 0.447214 -0.276393
vn 0.857485 -0.270493 -0.437667
vn 0.857485 0.270493 0.437667
vn 0.863603 -0.503771 0.0201168
vn 0.863603 -0.243286 0.44159
vn 0.863603 0.503771 -0.020117
vn 0.863603 0.243286 -0.44159
vn 0.950974 -0.270493 -0.149937
vn 0.950974 -0.0131397 -0.30899
vn 0.950975 0.0131397 0.30899
vn 0.950975 0.270493 0.149937
vn 0.95823 0.243286 -0.150359
vn 0.95823 -0.243286 0.150359
vn 1 3.7829e-009 -2.14364e-007
usemtl white
s 1
f 81//77 82//79 100//99
f 103//102 100//99 122//123
f 81//77 103//102 80//78
f 81//77 100//99 103//102
f 126//125 122//123 142//143
f 102//103 103//102 126//125
f 80//78 102//103 79//83
f 103//102 122//123 126//125
f 80//78 103//102 102//103
f 141//141 142//143 150//149
f 121//120 126//125 141//141
f 102//103 121//120 99//100
f 79//83 99//100 78//84
f 126//125 142//143 141//141
f 102//103 126//125 121//120
f 79//83 102//103 99//100
f 100//99 82//79 92//96
f 114//113 92//96 110//111
f 100//99 114//113 122//123
f 100//99 92//96 114//113
f 130//131 110//111 118//119
f 134//135 114//113 130//131
f 122//123 134//135 142//143
f 114//113 110//111 130//131
f 122//123 114//113 134//135
f 138//136 118//119 127//127
f 146//145 130//131 138//136
f 134//135 146//145 154//154
f 142//143 154//154 150//149
f 130//131 118//119 138//136
f 134//135 130//131 146//145
f 142//143 134//135 154//154
f 92//96 82//79 72//68
f 84//85 72//68 54//54
f 92//96 84//85 110//111
f 92//96 72//68 84//85
f 68//72 54//54 47//46
f 96//92 84//85 68//72
f 110//111 96//92 118//119
f 84//85 54//54 68//72
f 110//111 84//85 96//92
f 57//57 47//46 39//37
f 87//80 68//72 57//57
f 96//92 87//80 107//107
f 118//119 107//107 127//127
f 68//72 47//46 57//57
f 96//92 68//72 87//80
f 118//119 96//92 107//107
f 82//79 64//65 72//68
f 50//50 64//65 41//42
f 72//68 50//50 54//54
f 72//68 64//65 50//50
f 30//31 41//42 21//22
f 50//50 30//31 35//34
f 54//54 35//34 47//46
f 50//50 41//42 30//31
f 54//54 50//50 35//34
f 11//11 21//22 13//14
f 19//19 30//31 11//11
f 35//34 19//19 27//27
f 47//46 27//27 39//37
f 30//31 21//22 11//11
f 35//34 30//31 19//19
f 47//46 35//34 27//27
f 82//79 81//77 64//65
f 59//59 81//77 80//78
f 64//65 59//59 41//42
f 64//65 81//77 59//59
f 58//58 80//78 79//83
f 59//59 58//58 37//38
f 41//42 37//38 21//22
f 59//59 80//78 58//58
f 41//42 59//59 37//38
f 62//62 79//83 78//84
f 40//40 58//58 62//62
f 37//38 40//40 20//20
f 21//22 20//20 13//14
f 58//58 79//83 62//62
f 37//38 58//58 40//40
f 21//22 37//38 20//20
f 90//95 98//98 77//81
f 108//109 112//114 90//95
f 112//114 120//121 98//98
f 90//95 112//114 98//98
f 116//117 128//128 108//109
f 128//128 132//132 112//114
f 132//132 140//142 120//121
f 108//109 128//128 112//114
f 132//132 120//121 112//114
f 125//126 136//137 116//117
f 136//137 144//146 128//128
f 144//146 152//152 132//132
f 152//152 148//148 140//142
f 116//117 136//137 128//128
f 128//128 144//146 132//132
f 152//152 140//142 132//132
f 98//98 83//82 77//81
f 120//121 104//104 98//98
f 104//104 85//86 83//82
f 98//98 104//104 83//82
f 140//142 124//124 120//121
f 124//124 105//105 104//104
f 105//105 86//87 85//86
f 120//121 124//124 104//104
f 105//105 85//86 104//104
f 148//148 143//140 140//142
f 143//140 123//122 124//124
f 123//122 101//101 105//105
f 101//101 88//89 86//87
f 140//142 143//140 124//124
f 124//124 123//122 105//105
f 101//101 86//87 105//105
f 83//82 63//63 77//81
f 85//86 60//60 83//82
f 60//60 42//41 63//63
f 60//60 63//63 83//82
f 86//87 61//61 85//86
f 61//61 38//39 60//60
f 38//39 22//21 42//41
f 85//86 61//61 60//60
f 38//39 42//41 60//60
f 88//89 65//64 86//87
f 65//64 43//43 61//61
f 43//43 23//23 38//39
f 23//23 14//15 22//21
f 86//87 65//64 61//61
f 43//43 38//39 61//61
f 23//23 22//21 38//39
f 63//63 71//67 77//81
f 42//41 49//48 63//63
f 49//48 53//52 71//67
f 49//48 71//67 63//63
f 22//21 29//28 42//41
f 29//28 33//32 49//48
f 33//32 45//44 53//52
f 42//41 29//28 49//48
f 33//32 53//52 49//48
f 14//15 9//9 22//21
f 9//9 17//17 29//28
f 17//17 25//25 33//32
f 25//25 36//36 45//44
f 22//21 9//9 29//28
f 17//17 33//32 29//28
f 25//25 45//44 33//32
f 71//67 90//95 77//81
f 53//52 76//76 71//67
f 76//76 108//109 90//95
f 76//76 90//95 71//67
f 45//44 67//71 53//52
f 67//71 94//90 76//76
f 94//90 116//117 108//109
f 53//52 67//71 76//76
f 94//90 108//109 76//76
f 36//36 56//56 45//44
f 56//56 74//74 67//71
f 74//74 106//106 94//90
f 106//106 125//126 116//117
f 45//44 56//56 67//71
f 74//74 94//90 67//71
f 106//106 116//117 94//90
f 78//84 99//100 91//94
f 99//100 121//120 113//112
f 91//94 113//112 109//108
f 99//100 113//112 91//94
f 121//120 141//141 133//134
f 113//112 133//134 129//130
f 109//108 129//130 117//116
f 113//112 121//120 133//134
f 109//108 113//112 129//130
f 141//141 150//149 153//155
f 133//134 153//155 145//144
f 129//130 145//144 137//138
f 117//116 137//138 125//126
f 133//134 141//141 153//155
f 129//130 133//134 145//144
f 117//116 129//130 137//138
f 150//149 154//154 160//160
f 154//154 146//145 159//159
f 160//160 159//159 162//162
f 154//154 159//159 160//160
f 146//145 138//136 151//151
f 159//159 151//151 158//158
f 162//162 158//158 161//161
f 159//159 146//145 151//151
f 162//162 159//159 158//158
f 138//136 127//127 139//139
f 151//151 139//139 147//147
f 158//158 147//147 155//153
f 161//161 155//153 148//148
f 151//151 138//136 139//139
f 158//158 151//151 147//147
f 161//161 158//158 155//153
f 127//127 107//107 119//118
f 107//107 87//80 97//93
f 119//118 97//93 111//110
f 107//107 97//93 119//118
f 87//80 57//57 69//73
f 97//93 69//73 89//88
f 111//110 89//88 93//97
f 97//93 87//80 69//73
f 111//110 97//93 89//88
f 57//57 39//37 46//47
f 69//73 46//47 55//55
f 89//88 55//55 73//69
f 93//97 73//69 88//89
f 69//73 57//57 46//47
f 69//73 55//55 89//88
f 93//97 89//88 73//69
f 39//37 27//27 26//26
f 27//27 19//19 15//13
f 26//26 15//13 18//18
f 27//27 15//13 26//26
f 19//19 11//11 7//5
f 15//13 7//5 6//7
f 18//18 6//7 10//10
f 19//19 7//5 15//13
f 15//13 6//7 18//18
f 11//11 13//14 2//3
f 7//5 2//3 1//1
f 6//7 1//1 3//2
f 10//10 3//2 14//15
f 7//5 11//11 2//3
f 7//5 1//1 6//7
f 6//7 3//2 10//10
f 13//14 20//20 8//8
f 20//20 40//40 28//29
f 8//8 28//29 16//16
f 20//20 28//29 8//8
f 40//40 62//62 48//49
f 28//29 48//49 32//33
f 16//16 32//33 24//24
f 40//40 48//49 28//29
f 28//29 32//33 16//16
f 62//62 78//84 70//66
f 48//49 70//66 52//53
f 32//33 52//53 44//45
f 24//24 44//45 36//36
f 48//49 62//62 70//66
f 48//49 52//53 32//33
f 32//33 44//45 24//24
f 161//161 148//148 152//152
f 156//156 152//152 144//146
f 162//162 161//161 156//156
f 156//156 161//161 152//152
f 136//137 149//150 144//146
f 149//150 157//157 156//156
f 157//157 160//160 162//162
f 149//150 156//156 144//146
f 157//157 162//162 156//156
f 125//126 137//138 136//137
f 137//138 145//144 149//150
f 145//144 153//155 157//157
f 153//155 150//149 160//160
f 137//138 149//150 136//137
f 145//144 157//157 149//150
f 153//155 160//160 157//157
f 93//97 88//89 101//101
f 115//115 101//101 123//122
f 111//110 93//97 115//115
f 115//115 93//97 101//101
f 143//140 135//133 123//122
f 135//133 131//129 115//115
f 131//129 119//118 111//110
f 135//133 115//115 123//122
f 131//129 111//110 115//115
f 148//148 155//153 143//140
f 155//153 147//147 135//133
f 147//147 139//139 131//129
f 139//139 127//127 119//118
f 155//153 135//133 143//140
f 147//147 131//129 135//133
f 139//139 119//118 131//129
f 10//10 14//15 23//23
f 31//30 23//23 43//43
f 18//18 10//10 31//30
f 31//30 10//10 23//23
f 65//64 51//51 43//43
f 34//35 31//30 51//51
f 26//26 18//18 34//35
f 51//51 31//30 43//43
f 34//35 18//18 31//30
f 88//89 73//69 65//64
f 73//69 55//55 51//51
f 46//47 34//35 55//55
f 39//37 26//26 46//47
f 73//69 51//51 65//64
f 55//55 34//35 51//51
f 46//47 26//26 34//35
f 24//24 36//36 25//25
f 12//12 25//25 17//17
f 16//16 24//24 12//12
f 12//12 24//24 25//25
f 9//9 4//6 17//17
f 5//4 12//12 4//6
f 8//8 16//16 5//4
f 4//6 12//12 17//17
f 5//4 16//16 12//12
f 14//15 3//2 9//9
f 3//2 1//1 4//6
f 2//3 5//4 1//1
f 13//14 8//8 2//3
f 3//2 4//6 9//9
f 1//1 5//4 4//6
f 2//3 8//8 5//4
f 117//116 125//126 106//106
f 95//91 106//106 74//74
f 109//108 117//116 95//91
f 95//91 117//116 106//106
f 56//56 66//70 74//74
f 66//70 75//75 95//91
f 75//75 91//94 109//108
f 66//70 95//91 74//74
f 75//75 109//108 95//91
f 36//36 44//45 56//56
f 44//45 52//53 66//70
f 70//66 75//75 52//53
f 78//84 91//94 70//66
f 44//45 66//70 56//56
f 52//53 75//75 66//70
f 70//66 91//94 75//75
